<mxfile host="app.diagrams.net" agent="Mozilla/5.0 (X11; Linux x86_64) AppleWebKit/537.36 (KHTML, like Gecko) Chrome/129.0.0.0 Safari/537.36" version="24.8.0">
  <diagram id="R2lEEEUBdFMjLlhIrx00" name="Page-1">
    <mxGraphModel dx="1434" dy="760" grid="1" gridSize="10" guides="1" tooltips="1" connect="1" arrows="1" fold="1" page="1" pageScale="1" pageWidth="850" pageHeight="1100" background="none" math="0" shadow="0" extFonts="Permanent Marker^https://fonts.googleapis.com/css?family=Permanent+Marker">
      <root>
        <mxCell id="0" />
        <mxCell id="1" parent="0" />
        <mxCell id="EMIR_B9XKgD5JRGw5aek-68" value="" style="group;fillColor=#dae8fc;strokeColor=#6c8ebf;" parent="1" vertex="1" connectable="0">
          <mxGeometry x="340" y="290" width="320" height="210" as="geometry" />
        </mxCell>
        <mxCell id="EMIR_B9XKgD5JRGw5aek-54" style="edgeStyle=orthogonalEdgeStyle;rounded=0;orthogonalLoop=1;jettySize=auto;html=1;exitX=0.25;exitY=0;exitDx=0;exitDy=0;entryX=0.5;entryY=1;entryDx=0;entryDy=0;" parent="EMIR_B9XKgD5JRGw5aek-68" source="EMIR_B9XKgD5JRGw5aek-17" target="EMIR_B9XKgD5JRGw5aek-50" edge="1">
          <mxGeometry relative="1" as="geometry" />
        </mxCell>
        <mxCell id="EMIR_B9XKgD5JRGw5aek-55" style="edgeStyle=orthogonalEdgeStyle;rounded=0;orthogonalLoop=1;jettySize=auto;html=1;exitX=0.75;exitY=0;exitDx=0;exitDy=0;entryX=0.5;entryY=1;entryDx=0;entryDy=0;" parent="EMIR_B9XKgD5JRGw5aek-68" source="EMIR_B9XKgD5JRGw5aek-17" target="EMIR_B9XKgD5JRGw5aek-52" edge="1">
          <mxGeometry relative="1" as="geometry" />
        </mxCell>
        <mxCell id="EMIR_B9XKgD5JRGw5aek-56" style="edgeStyle=orthogonalEdgeStyle;rounded=0;orthogonalLoop=1;jettySize=auto;html=1;exitX=0.75;exitY=1;exitDx=0;exitDy=0;entryX=0.5;entryY=0;entryDx=0;entryDy=0;" parent="EMIR_B9XKgD5JRGw5aek-68" source="EMIR_B9XKgD5JRGw5aek-17" target="EMIR_B9XKgD5JRGw5aek-51" edge="1">
          <mxGeometry relative="1" as="geometry" />
        </mxCell>
        <mxCell id="EMIR_B9XKgD5JRGw5aek-57" style="edgeStyle=orthogonalEdgeStyle;rounded=0;orthogonalLoop=1;jettySize=auto;html=1;exitX=0.25;exitY=1;exitDx=0;exitDy=0;entryX=0.5;entryY=0;entryDx=0;entryDy=0;" parent="EMIR_B9XKgD5JRGw5aek-68" source="EMIR_B9XKgD5JRGw5aek-17" target="EMIR_B9XKgD5JRGw5aek-53" edge="1">
          <mxGeometry relative="1" as="geometry" />
        </mxCell>
        <mxCell id="EMIR_B9XKgD5JRGw5aek-17" value="Sense of Self" style="whiteSpace=wrap;html=1;align=center;" parent="EMIR_B9XKgD5JRGw5aek-68" vertex="1">
          <mxGeometry x="110" y="90" width="100" height="40" as="geometry" />
        </mxCell>
        <mxCell id="EMIR_B9XKgD5JRGw5aek-50" value="Self_ID" style="ellipse;whiteSpace=wrap;html=1;align=center;fontStyle=4;" parent="EMIR_B9XKgD5JRGw5aek-68" vertex="1">
          <mxGeometry width="100" height="40" as="geometry" />
        </mxCell>
        <mxCell id="EMIR_B9XKgD5JRGw5aek-51" value="Core_Memories" style="ellipse;whiteSpace=wrap;html=1;align=center;" parent="EMIR_B9XKgD5JRGw5aek-68" vertex="1">
          <mxGeometry x="220" y="170" width="100" height="40" as="geometry" />
        </mxCell>
        <mxCell id="EMIR_B9XKgD5JRGw5aek-52" value="Beliefs" style="ellipse;whiteSpace=wrap;html=1;align=center;" parent="EMIR_B9XKgD5JRGw5aek-68" vertex="1">
          <mxGeometry x="220" width="100" height="40" as="geometry" />
        </mxCell>
        <mxCell id="EMIR_B9XKgD5JRGw5aek-53" value="Emotional_State" style="ellipse;whiteSpace=wrap;html=1;align=center;" parent="EMIR_B9XKgD5JRGw5aek-68" vertex="1">
          <mxGeometry y="170" width="100" height="40" as="geometry" />
        </mxCell>
        <mxCell id="EMIR_B9XKgD5JRGw5aek-69" value="" style="group;fillColor=#dae8fc;strokeColor=#6c8ebf;" parent="1" vertex="1" connectable="0">
          <mxGeometry x="10" y="430" width="300" height="170" as="geometry" />
        </mxCell>
        <mxCell id="EMIR_B9XKgD5JRGw5aek-62" style="edgeStyle=orthogonalEdgeStyle;rounded=0;orthogonalLoop=1;jettySize=auto;html=1;exitX=0.25;exitY=0;exitDx=0;exitDy=0;entryX=1;entryY=0.5;entryDx=0;entryDy=0;" parent="EMIR_B9XKgD5JRGw5aek-69" source="EMIR_B9XKgD5JRGw5aek-12" target="EMIR_B9XKgD5JRGw5aek-58" edge="1">
          <mxGeometry relative="1" as="geometry" />
        </mxCell>
        <mxCell id="EMIR_B9XKgD5JRGw5aek-63" style="edgeStyle=orthogonalEdgeStyle;rounded=0;orthogonalLoop=1;jettySize=auto;html=1;exitX=0.75;exitY=0;exitDx=0;exitDy=0;entryX=0;entryY=0.5;entryDx=0;entryDy=0;" parent="EMIR_B9XKgD5JRGw5aek-69" source="EMIR_B9XKgD5JRGw5aek-12" target="EMIR_B9XKgD5JRGw5aek-60" edge="1">
          <mxGeometry relative="1" as="geometry" />
        </mxCell>
        <mxCell id="EMIR_B9XKgD5JRGw5aek-64" style="edgeStyle=orthogonalEdgeStyle;rounded=0;orthogonalLoop=1;jettySize=auto;html=1;exitX=0.5;exitY=1;exitDx=0;exitDy=0;entryX=0.5;entryY=0;entryDx=0;entryDy=0;" parent="EMIR_B9XKgD5JRGw5aek-69" source="EMIR_B9XKgD5JRGw5aek-12" target="EMIR_B9XKgD5JRGw5aek-61" edge="1">
          <mxGeometry relative="1" as="geometry" />
        </mxCell>
        <mxCell id="EMIR_B9XKgD5JRGw5aek-12" value="Event" style="whiteSpace=wrap;html=1;align=center;" parent="EMIR_B9XKgD5JRGw5aek-69" vertex="1">
          <mxGeometry x="100" y="60" width="100" height="40" as="geometry" />
        </mxCell>
        <mxCell id="EMIR_B9XKgD5JRGw5aek-58" value="Event_ID" style="ellipse;whiteSpace=wrap;html=1;align=center;fontStyle=4;" parent="EMIR_B9XKgD5JRGw5aek-69" vertex="1">
          <mxGeometry width="100" height="40" as="geometry" />
        </mxCell>
        <mxCell id="EMIR_B9XKgD5JRGw5aek-60" value="Description" style="ellipse;whiteSpace=wrap;html=1;align=center;" parent="EMIR_B9XKgD5JRGw5aek-69" vertex="1">
          <mxGeometry x="200" width="100" height="40" as="geometry" />
        </mxCell>
        <mxCell id="EMIR_B9XKgD5JRGw5aek-61" value="Emotion&lt;div&gt;Triggered&lt;/div&gt;" style="ellipse;whiteSpace=wrap;html=1;align=center;" parent="EMIR_B9XKgD5JRGw5aek-69" vertex="1">
          <mxGeometry x="100" y="130" width="100" height="40" as="geometry" />
        </mxCell>
        <mxCell id="EMIR_B9XKgD5JRGw5aek-70" value="" style="group;fillColor=#dae8fc;strokeColor=#6c8ebf;" parent="1" vertex="1" connectable="0">
          <mxGeometry y="190" width="300" height="200" as="geometry" />
        </mxCell>
        <mxCell id="EMIR_B9XKgD5JRGw5aek-43" style="edgeStyle=orthogonalEdgeStyle;rounded=0;orthogonalLoop=1;jettySize=auto;html=1;exitX=0.75;exitY=1;exitDx=0;exitDy=0;entryX=0.5;entryY=0;entryDx=0;entryDy=0;" parent="EMIR_B9XKgD5JRGw5aek-70" source="EMIR_B9XKgD5JRGw5aek-9" target="EMIR_B9XKgD5JRGw5aek-42" edge="1">
          <mxGeometry relative="1" as="geometry" />
        </mxCell>
        <mxCell id="EMIR_B9XKgD5JRGw5aek-45" style="edgeStyle=orthogonalEdgeStyle;rounded=0;orthogonalLoop=1;jettySize=auto;html=1;exitX=0.25;exitY=1;exitDx=0;exitDy=0;entryX=0.5;entryY=0;entryDx=0;entryDy=0;" parent="EMIR_B9XKgD5JRGw5aek-70" source="EMIR_B9XKgD5JRGw5aek-9" target="EMIR_B9XKgD5JRGw5aek-44" edge="1">
          <mxGeometry relative="1" as="geometry" />
        </mxCell>
        <mxCell id="EMIR_B9XKgD5JRGw5aek-49" style="edgeStyle=orthogonalEdgeStyle;rounded=0;orthogonalLoop=1;jettySize=auto;html=1;exitX=0.5;exitY=1;exitDx=0;exitDy=0;entryX=0.5;entryY=0;entryDx=0;entryDy=0;" parent="EMIR_B9XKgD5JRGw5aek-70" source="EMIR_B9XKgD5JRGw5aek-9" target="EMIR_B9XKgD5JRGw5aek-48" edge="1">
          <mxGeometry relative="1" as="geometry" />
        </mxCell>
        <mxCell id="EMIR_B9XKgD5JRGw5aek-9" value="Personality&amp;nbsp;&lt;div&gt;Island&lt;/div&gt;" style="whiteSpace=wrap;html=1;align=center;" parent="EMIR_B9XKgD5JRGw5aek-70" vertex="1">
          <mxGeometry x="100" width="100" height="40" as="geometry" />
        </mxCell>
        <mxCell id="EMIR_B9XKgD5JRGw5aek-42" value="Island_Name" style="ellipse;whiteSpace=wrap;html=1;align=center;" parent="EMIR_B9XKgD5JRGw5aek-70" vertex="1">
          <mxGeometry x="200" y="100" width="100" height="40" as="geometry" />
        </mxCell>
        <mxCell id="EMIR_B9XKgD5JRGw5aek-44" value="Island_ID" style="ellipse;whiteSpace=wrap;html=1;align=center;fontStyle=4;" parent="EMIR_B9XKgD5JRGw5aek-70" vertex="1">
          <mxGeometry y="100" width="100" height="40" as="geometry" />
        </mxCell>
        <mxCell id="EMIR_B9XKgD5JRGw5aek-48" value="Core_Memory" style="ellipse;whiteSpace=wrap;html=1;align=center;" parent="EMIR_B9XKgD5JRGw5aek-70" vertex="1">
          <mxGeometry x="100" y="160" width="100" height="40" as="geometry" />
        </mxCell>
        <mxCell id="EMIR_B9XKgD5JRGw5aek-71" value="" style="group;fillColor=#dae8fc;strokeColor=#6c8ebf;" parent="1" vertex="1" connectable="0">
          <mxGeometry x="310" width="320" height="220" as="geometry" />
        </mxCell>
        <mxCell id="EMIR_B9XKgD5JRGw5aek-34" style="edgeStyle=orthogonalEdgeStyle;rounded=0;orthogonalLoop=1;jettySize=auto;html=1;exitX=0.25;exitY=0;exitDx=0;exitDy=0;exitPerimeter=0;entryX=0.5;entryY=1;entryDx=0;entryDy=0;" parent="EMIR_B9XKgD5JRGw5aek-71" source="EMIR_B9XKgD5JRGw5aek-3" target="EMIR_B9XKgD5JRGw5aek-31" edge="1">
          <mxGeometry relative="1" as="geometry" />
        </mxCell>
        <mxCell id="EMIR_B9XKgD5JRGw5aek-37" style="edgeStyle=orthogonalEdgeStyle;rounded=0;orthogonalLoop=1;jettySize=auto;html=1;exitX=0.25;exitY=1;exitDx=0;exitDy=0;exitPerimeter=0;entryX=0.5;entryY=0;entryDx=0;entryDy=0;" parent="EMIR_B9XKgD5JRGw5aek-71" source="EMIR_B9XKgD5JRGw5aek-3" target="EMIR_B9XKgD5JRGw5aek-36" edge="1">
          <mxGeometry relative="1" as="geometry" />
        </mxCell>
        <mxCell id="EMIR_B9XKgD5JRGw5aek-39" style="edgeStyle=orthogonalEdgeStyle;rounded=0;orthogonalLoop=1;jettySize=auto;html=1;exitX=0.75;exitY=0;exitDx=0;exitDy=0;exitPerimeter=0;entryX=0.5;entryY=1;entryDx=0;entryDy=0;" parent="EMIR_B9XKgD5JRGw5aek-71" source="EMIR_B9XKgD5JRGw5aek-3" target="EMIR_B9XKgD5JRGw5aek-38" edge="1">
          <mxGeometry relative="1" as="geometry" />
        </mxCell>
        <mxCell id="EMIR_B9XKgD5JRGw5aek-41" style="edgeStyle=orthogonalEdgeStyle;rounded=0;orthogonalLoop=1;jettySize=auto;html=1;exitX=0.75;exitY=1;exitDx=0;exitDy=0;exitPerimeter=0;entryX=0.5;entryY=0;entryDx=0;entryDy=0;" parent="EMIR_B9XKgD5JRGw5aek-71" source="EMIR_B9XKgD5JRGw5aek-3" target="EMIR_B9XKgD5JRGw5aek-40" edge="1">
          <mxGeometry relative="1" as="geometry" />
        </mxCell>
        <mxCell id="EMIR_B9XKgD5JRGw5aek-3" value="Memory" style="whiteSpace=wrap;html=1;align=center;points=[[0,0,0,0,0],[0,0.25,0,0,0],[0,0.5,0,0,0],[0,0.75,0,0,0],[0,1,0,0,0],[0.25,0,0,0,0],[0.25,1,0,0,0],[0.5,0,0,0,0],[0.5,1,0,0,0],[0.75,0,0,0,0],[0.75,1,0,0,0],[1,0,0,0,0],[1,0.25,0,0,0],[1,0.5,0,0,0],[1,0.75,0,0,0],[1,1,0,0,0]];" parent="EMIR_B9XKgD5JRGw5aek-71" vertex="1">
          <mxGeometry x="110" y="90" width="100" height="40" as="geometry" />
        </mxCell>
        <mxCell id="EMIR_B9XKgD5JRGw5aek-31" value="Memory_ID" style="ellipse;whiteSpace=wrap;html=1;align=center;fontStyle=4;" parent="EMIR_B9XKgD5JRGw5aek-71" vertex="1">
          <mxGeometry width="100" height="40" as="geometry" />
        </mxCell>
        <mxCell id="EMIR_B9XKgD5JRGw5aek-36" value="Event" style="ellipse;whiteSpace=wrap;html=1;align=center;" parent="EMIR_B9XKgD5JRGw5aek-71" vertex="1">
          <mxGeometry y="180" width="100" height="40" as="geometry" />
        </mxCell>
        <mxCell id="EMIR_B9XKgD5JRGw5aek-38" value="Emotion_ID" style="ellipse;whiteSpace=wrap;html=1;align=center;" parent="EMIR_B9XKgD5JRGw5aek-71" vertex="1">
          <mxGeometry x="220" width="100" height="40" as="geometry" />
        </mxCell>
        <mxCell id="EMIR_B9XKgD5JRGw5aek-40" value="Memory_Type" style="ellipse;whiteSpace=wrap;html=1;align=center;" parent="EMIR_B9XKgD5JRGw5aek-71" vertex="1">
          <mxGeometry x="220" y="180" width="100" height="40" as="geometry" />
        </mxCell>
        <mxCell id="EMIR_B9XKgD5JRGw5aek-72" value="" style="group;fillColor=#dae8fc;strokeColor=#6c8ebf;" parent="1" vertex="1" connectable="0">
          <mxGeometry width="270" height="120" as="geometry" />
        </mxCell>
        <mxCell id="EMIR_B9XKgD5JRGw5aek-26" style="edgeStyle=orthogonalEdgeStyle;rounded=0;orthogonalLoop=1;jettySize=auto;html=1;exitX=0.75;exitY=0;exitDx=0;exitDy=0;" parent="EMIR_B9XKgD5JRGw5aek-72" source="EMIR_B9XKgD5JRGw5aek-2" target="EMIR_B9XKgD5JRGw5aek-24" edge="1">
          <mxGeometry relative="1" as="geometry" />
        </mxCell>
        <mxCell id="EMIR_B9XKgD5JRGw5aek-30" style="edgeStyle=orthogonalEdgeStyle;rounded=0;orthogonalLoop=1;jettySize=auto;html=1;exitX=0.25;exitY=0;exitDx=0;exitDy=0;entryX=0.5;entryY=1;entryDx=0;entryDy=0;" parent="EMIR_B9XKgD5JRGw5aek-72" source="EMIR_B9XKgD5JRGw5aek-2" target="EMIR_B9XKgD5JRGw5aek-29" edge="1">
          <mxGeometry relative="1" as="geometry" />
        </mxCell>
        <mxCell id="EMIR_B9XKgD5JRGw5aek-2" value="Emotion" style="whiteSpace=wrap;html=1;align=center;" parent="EMIR_B9XKgD5JRGw5aek-72" vertex="1">
          <mxGeometry x="80" y="80" width="100" height="40" as="geometry" />
        </mxCell>
        <mxCell id="EMIR_B9XKgD5JRGw5aek-24" value="Name" style="ellipse;whiteSpace=wrap;html=1;align=center;" parent="EMIR_B9XKgD5JRGw5aek-72" vertex="1">
          <mxGeometry x="170" width="100" height="40" as="geometry" />
        </mxCell>
        <mxCell id="EMIR_B9XKgD5JRGw5aek-29" value="Emotio_ID" style="ellipse;whiteSpace=wrap;html=1;align=center;fontStyle=4;" parent="EMIR_B9XKgD5JRGw5aek-72" vertex="1">
          <mxGeometry width="100" height="40" as="geometry" />
        </mxCell>
        <mxCell id="EMIR_B9XKgD5JRGw5aek-79" value="" style="group;fillColor=#d5e8d4;strokeColor=#82b366;" parent="1" vertex="1" connectable="0">
          <mxGeometry x="30" y="697.5" width="330" height="132.5" as="geometry" />
        </mxCell>
        <mxCell id="EMIR_B9XKgD5JRGw5aek-75" style="edgeStyle=orthogonalEdgeStyle;rounded=0;orthogonalLoop=1;jettySize=auto;html=1;exitX=0.75;exitY=0;exitDx=0;exitDy=0;entryX=0;entryY=0.5;entryDx=0;entryDy=0;" parent="EMIR_B9XKgD5JRGw5aek-79" source="EMIR_B9XKgD5JRGw5aek-19" target="EMIR_B9XKgD5JRGw5aek-74" edge="1">
          <mxGeometry relative="1" as="geometry" />
        </mxCell>
        <mxCell id="EMIR_B9XKgD5JRGw5aek-78" style="edgeStyle=orthogonalEdgeStyle;rounded=0;orthogonalLoop=1;jettySize=auto;html=1;exitX=0.25;exitY=0;exitDx=0;exitDy=0;entryX=1;entryY=0.5;entryDx=0;entryDy=0;" parent="EMIR_B9XKgD5JRGw5aek-79" source="EMIR_B9XKgD5JRGw5aek-19" target="EMIR_B9XKgD5JRGw5aek-77" edge="1">
          <mxGeometry relative="1" as="geometry" />
        </mxCell>
        <mxCell id="EMIR_B9XKgD5JRGw5aek-19" value="Dreams" style="shape=ext;margin=3;double=1;whiteSpace=wrap;html=1;align=center;" parent="EMIR_B9XKgD5JRGw5aek-79" vertex="1">
          <mxGeometry x="130" y="92.5" width="100" height="40" as="geometry" />
        </mxCell>
        <mxCell id="EMIR_B9XKgD5JRGw5aek-74" value="Dream_Description" style="ellipse;whiteSpace=wrap;html=1;align=center;" parent="EMIR_B9XKgD5JRGw5aek-79" vertex="1">
          <mxGeometry x="230" y="7.5" width="100" height="40" as="geometry" />
        </mxCell>
        <mxCell id="EMIR_B9XKgD5JRGw5aek-77" value="&lt;span style=&quot;border-bottom: 1px dotted&quot;&gt;Memory_Associated&lt;/span&gt;" style="ellipse;whiteSpace=wrap;html=1;align=center;" parent="EMIR_B9XKgD5JRGw5aek-79" vertex="1">
          <mxGeometry width="130" height="55" as="geometry" />
        </mxCell>
        <mxCell id="EMIR_B9XKgD5JRGw5aek-89" value="" style="group;fillColor=#d5e8d4;strokeColor=#82b366;" parent="1" vertex="1" connectable="0">
          <mxGeometry x="510" y="560" width="300" height="130" as="geometry" />
        </mxCell>
        <mxCell id="EMIR_B9XKgD5JRGw5aek-86" style="edgeStyle=orthogonalEdgeStyle;rounded=0;orthogonalLoop=1;jettySize=auto;html=1;exitX=0.25;exitY=0;exitDx=0;exitDy=0;entryX=1;entryY=0.5;entryDx=0;entryDy=0;" parent="EMIR_B9XKgD5JRGw5aek-89" source="EMIR_B9XKgD5JRGw5aek-18" target="EMIR_B9XKgD5JRGw5aek-83" edge="1">
          <mxGeometry relative="1" as="geometry" />
        </mxCell>
        <mxCell id="EMIR_B9XKgD5JRGw5aek-88" style="edgeStyle=orthogonalEdgeStyle;rounded=0;orthogonalLoop=1;jettySize=auto;html=1;exitX=0.75;exitY=0;exitDx=0;exitDy=0;entryX=0;entryY=0.5;entryDx=0;entryDy=0;" parent="EMIR_B9XKgD5JRGw5aek-89" source="EMIR_B9XKgD5JRGw5aek-18" target="EMIR_B9XKgD5JRGw5aek-87" edge="1">
          <mxGeometry relative="1" as="geometry" />
        </mxCell>
        <mxCell id="EMIR_B9XKgD5JRGw5aek-18" value="Thoughts" style="shape=ext;margin=3;double=1;whiteSpace=wrap;html=1;align=center;" parent="EMIR_B9XKgD5JRGw5aek-89" vertex="1">
          <mxGeometry x="112.5" y="90" width="93.75" height="40" as="geometry" />
        </mxCell>
        <mxCell id="EMIR_B9XKgD5JRGw5aek-83" value="&lt;span style=&quot;border-bottom: 1px dotted&quot;&gt;Emotion_ID&lt;/span&gt;" style="ellipse;whiteSpace=wrap;html=1;align=center;" parent="EMIR_B9XKgD5JRGw5aek-89" vertex="1">
          <mxGeometry width="93.75" height="40" as="geometry" />
        </mxCell>
        <mxCell id="EMIR_B9XKgD5JRGw5aek-87" value="&lt;span style=&quot;border-bottom: 1px dotted&quot;&gt;Event_ID&lt;/span&gt;" style="ellipse;whiteSpace=wrap;html=1;align=center;" parent="EMIR_B9XKgD5JRGw5aek-89" vertex="1">
          <mxGeometry x="206.25" width="93.75" height="40" as="geometry" />
        </mxCell>
      </root>
    </mxGraphModel>
  </diagram>
</mxfile>
